<svg xmlns="http://www.w3.org/2000/svg" viewBox="0 0 100 100"><title>transport</title><path d="M100,50A50,50,0,1,1,50,0a50,50,0,0,1,50,50" style="fill:#6fbe44"/><path d="M81.18,47.29l-3.28,0-.77-.78V42l.77-.77,2.19,0,.78.76L82,46.52ZM75.1,55.65l-.77.77H71.48l-.77-.77V41.93l.77-.76h2.85l.77.76Zm-5.76-.08-.77.78H65.73L65,55.57V41.86l.77-.77h2.84l.77.77Zm-6.25-9-.77.77H56.57l-.76-.77V41.93l.76-.76h5.75l.77.76Zm-9.15.06-.78.71H46.93l-.77-.71V42l.77-.82h6.25l.76.82Zm-9.64-.06-.77.77H37.78L37,46.52V41.93l.76-.76h5.75l.77.76Zm.45-13.44,5.31-3.82,5.3,3.82-5.3,3.77Zm-9.6,22.49-.76.78H31.54l-.76-.78V41.86l.76-.77h2.85l.76.77Zm-5.76.08-.76.77H25.78L25,55.65V41.93l.76-.76h2.85l.76.76ZM23,46.55l-.77.78-3.27,0-.76-.77,1.07-4.59.77-.76,2.19,0L23,42Zm59.19-7.23-1-1H57.91l-1.16-1.08H51l5.83-4.13h0l-5.31-3.83v-2l-.52-.47h-2l-.52.47v2l-5.3,3.83h0l5.84,4.13H43.37L42.21,38.3H19l-1,1-2.08,8v10.4H21.6V58.8h3.34a2.28,2.28,0,1,0,4.55,0h3.35a2.28,2.28,0,1,0,4.55,0H62.72a2.27,2.27,0,1,0,4.54,0h3.36a2.28,2.28,0,1,0,4.55,0h3.35V57.69h5.75V47.29Z" style="fill:#fff"/></svg>