<svg xmlns="http://www.w3.org/2000/svg" viewBox="0 0 100 100"><title>transport</title><path d="M100,50A50,50,0,1,1,50,0a50,50,0,0,1,50,50" style="fill:#2c9ad6"/><path d="M62.47,59a32.63,32.63,0,0,1-9.6,1.51,40,40,0,0,1-8.75-1.18c-9.33-2.14-12.88-.6-17.61.59l2,2.84a27.52,27.52,0,0,1,14-.47,53.46,53.46,0,0,0,10.06,1.59,33,33,0,0,0,9.89-1.52,37.66,37.66,0,0,1,9-1.38c4.56.08,8,.79,9.92,1.66L80,58.9a30,30,0,0,0-17.52.1" style="fill:#fff"/><path d="M30.77,41.94l1.43-1.61a3.54,3.54,0,0,1,1.49-.59h3.39V45H28.41Zm8.6-2.2h9V45l-9.05,0Zm11.27,0h9V45h-9Zm11.28,0h6.24a2.23,2.23,0,0,1,1,.43l.6.85,1.51,4H61.92ZM52.34,57.15c8,0,10.76-2.43,17.8-2.81,8.63-.47,14.07,2.84,14.07,2.84L79.54,45H74.61l-2.22-5.81a3.35,3.35,0,0,0-1.18-1.55,3.47,3.47,0,0,0-2-.64H55.49V34.55H47.08l-1.35-1.88.94-2.34H44.38l-1.79,4.22H39.38V37H32.33a4,4,0,0,0-1.5.41,5.73,5.73,0,0,0-.77.57l-5.4,7H15.79l8.88,12.16A39.82,39.82,0,0,1,36.4,54.86c5,.1,11.54,2.29,15.94,2.29" style="fill:#fff"/></svg>