<svg xmlns="http://www.w3.org/2000/svg" viewBox="0 0 100 100"><title>transport</title><path d="M100,50A50,50,0,1,1,50,0a50,50,0,0,1,50,50" style="fill:#fff"/><path d="M65,76a2.22,2.22,0,1,1,2.21-2.22A2.21,2.21,0,0,1,65,76M50.14,69.85c-9.54,0-16.12-5.5-16.2-12.31V51.59a1.58,1.58,0,0,1,1.73-1.37H65a1.38,1.38,0,0,1,1.37,1.37v5.76l0,.16c-.06,6.82-6.64,12.34-16.19,12.34M35.12,76a2.22,2.22,0,1,1,0-4.43,2.22,2.22,0,0,1,0,4.43M63,40.86V42.8a2.09,2.09,0,0,1-2.1,2.09H39a2.1,2.1,0,0,1-2.09-2.09V40.86A2.09,2.09,0,0,1,39,38.78H60.94A2.08,2.08,0,0,1,63,40.86M34.38,24.62c0-1.84,1.55-2.9,3.34-3.34,0,0,2.55-1.17,12.69-1.17s12.67,1.17,12.67,1.17c1.87.32,3.34,1.5,3.34,3.34V30a3.35,3.35,0,0,1-3.34,3.34H37.72A3.35,3.35,0,0,1,34.38,30ZM70,32.71c-.32-4.51-.66-10.57-1.91-14.25-.63-1.85-8.69-2.65-17.17-2.67H49.31c-8.47,0-16.54.82-17.17,2.67-1.26,3.68-1.59,9.74-1.91,14.25-.64,15.26-.16,45.95-.16,45.95h1.15v3.2a2.36,2.36,0,0,0,4.71,0v-3.2H64.34v3.2a2.36,2.36,0,0,0,4.72,0v-3.2H70.2s.17-10.82.17-22.81v-1c0-7.92-.09-16.23-.33-22.19" style="fill:#cc3533"/></svg>