<svg xmlns="http://www.w3.org/2000/svg" viewBox="0 0 100 100"><title>transport</title><path d="M100,50A50,50,0,1,1,50,0a50,50,0,0,1,50,50" style="fill:#f8991d"/><path d="M31,54.47a3.46,3.46,0,1,0,3.46,3.46A3.46,3.46,0,0,0,31,54.47" style="fill:#2b3187"/><path d="M65.14,54.47a3.46,3.46,0,1,0,3.46,3.46,3.45,3.45,0,0,0-3.46-3.46" style="fill:#2b3187"/><path d="M81.11,44.54v3.61H68.71v-5.6h10a3,3,0,0,1,1.85.74c.72.71.58,1.25.58,1.25M66.82,48.15H55V42.54h11.8Zm-13.76,0H41.26V42.54h11.8Zm-13.67,0H27.59V42.54h11.8Zm-15,8H20.08V42.54h4.29ZM83,40.24a3.63,3.63,0,0,0-2.52-1.62H22.24s-3,0-3.64.51c-1.16.94-1.26,3.42-1.26,3.42v5.6l-1.55,1.44v9.29H26.56S25.44,53,31,53s4.66,5.84,4.66,5.84H60.89S59.65,53,65.14,53c5.84,0,4.61,5.84,4.61,5.84l14.46-3.26V42.55A5.09,5.09,0,0,0,83,40.24" style="fill:#2b3187"/></svg>