<svg xmlns="http://www.w3.org/2000/svg" viewBox="0 0 100 100"><title>transport</title><path d="M50,0a50,50,0,1,0,50,50A50,50,0,0,0,50,0m0,15.79A34.21,34.21,0,1,1,15.79,50,34.25,34.25,0,0,1,50,15.79" style="fill:#1b9dd9"/><path d="M68.66,63.92a7.41,7.41,0,0,1-7.33-6.47h7.3l1.14-.34c.43-.51-.34-1.61-.34-1.61l-3.27-5.94a7.4,7.4,0,1,1,2.5,14.36M64.12,50.7l2.73,5H61.32a7.31,7.31,0,0,1,2.8-5m-5.71,5h-.89A4.19,4.19,0,0,0,56,53.26l4.15-9.72,2.51,4.6a10.3,10.3,0,0,0-4.28,7.52m-4.95,3.66a2.81,2.81,0,1,1,2.79-2.8,2.81,2.81,0,0,1-2.79,2.8M38.49,45l.65-2.09H57.61l-3.87,9.45h-.29l-1.25.18-.67-1.42h1.09V49.77h-4v1.35h1.61L51.14,53l-.54.44Zm.24,11.51a7.39,7.39,0,1,1-7.39-7.4,7.28,7.28,0,0,1,3.09.68l-.93,3a12,12,0,0,1-1.41,1.91c-.68.69-1.7,1-1.7,2.21,0,.93,1,.51,2.8-.25a5.49,5.49,0,0,0,2.57-2.82l.79-2.58a7.35,7.35,0,0,1,2.18,5.25M68.66,46.23a10,10,0,0,0-3.92.78l-3.41-6.17.85-2,.81-.22c1.72-.7,2.95-2.13,1.73-3H55.27l-.5,1c.14.42,1.7.39,3.45,1.07.33.14.77.38,1.26.59l-1,2.53H39.77l.53-1.72a3.08,3.08,0,0,0,.21-1.57c-.34-1.1-2-1.07-1.64-1.57a1,1,0,0,1,1-.35h3.39V33.19H38.23a2.6,2.6,0,0,0-2.34,2.39c-.25,1.78.87,2.23,2,3.07L35.29,47a10,10,0,0,0-3.95-.79,10.28,10.28,0,1,0,6.14,2l.31-1,11.65,8.12-.16,1.13a4.17,4.17,0,0,0,4.17,4.16l1.27-.21.78,1.64H54.36v1.33h4V62.11H56.72l-1-2.11a4.17,4.17,0,0,0,1.77-2.55h.91A10.29,10.29,0,1,0,68.66,46.23" style="fill:#121540"/></svg>