<svg xmlns="http://www.w3.org/2000/svg" viewBox="0 0 100 100"><title>transport</title><path d="M100,50A50,50,0,1,1,50,0a50,50,0,0,1,50,50" style="fill:#da1f2c"/><path d="M46.33,21.69a2.23,2.23,0,1,1-2.23-2.23,2.23,2.23,0,0,1,2.23,2.23" style="fill:#fff"/><path d="M52.89,20.05a2.23,2.23,0,1,1-2.22-2.24,2.21,2.21,0,0,1,2.22,2.24" style="fill:#fff"/><path d="M59.45,18.41a2.23,2.23,0,1,1-2.24-2.23,2.23,2.23,0,0,1,2.24,2.23" style="fill:#fff"/><path d="M66,16.77a2.23,2.23,0,1,1-4.45,0,2.21,2.21,0,0,1,2.21-2.24A2.24,2.24,0,0,1,66,16.77" style="fill:#fff"/><path d="M56.16,27.05c.63,7.44-4,14.26-4,14.26h8.87v3.48H36V41.31h10.4s7.5-5,6.3-13.49c1.47-.32,2-.52,3.47-.77" style="fill:#fff"/><path d="M67.14,66H30.19c-.4-7.86,2.54-13.14,6.61-16.53H60.92C65.68,53.27,68,60.12,67.14,66M36.41,47.1c-11.56,5.65-12.3,31,0,35.86H61c4.17-3.15,8.41-7.35,9.26-14.66,1.09-9.34-3.94-19.82-9.64-21.2" style="fill:#fff"/><polygon points="37.35 30.49 36.65 27.48 71.84 18.95 72.54 21.95 37.35 30.49" style="fill:#fff"/></svg>